<mxfile host="Electron" agent="Mozilla/5.0 (X11; Linux x86_64) AppleWebKit/537.36 (KHTML, like Gecko) draw.io/27.0.9 Chrome/134.0.6998.205 Electron/35.4.0 Safari/537.36" version="27.0.9">
  <diagram name="Page-1" id="GCaPdWnwiv5apKVxj9YR">
    <mxGraphModel dx="998" dy="583" grid="1" gridSize="10" guides="1" tooltips="1" connect="1" arrows="1" fold="1" page="1" pageScale="1" pageWidth="850" pageHeight="1100" math="1" shadow="0">
      <root>
        <mxCell id="0" />
        <mxCell id="1" parent="0" />
        <mxCell id="J6RAPATOhl8KOnhEuI8E-1" value="" style="endArrow=none;html=1;rounded=0;strokeWidth=3;fillColor=#f8cecc;strokeColor=#b85450;" parent="1" edge="1">
          <mxGeometry width="50" height="50" relative="1" as="geometry">
            <mxPoint x="80" y="160" as="sourcePoint" />
            <mxPoint x="280" y="160" as="targetPoint" />
          </mxGeometry>
        </mxCell>
        <mxCell id="J6RAPATOhl8KOnhEuI8E-2" value="" style="endArrow=none;html=1;rounded=0;strokeWidth=3;fillColor=#f8cecc;strokeColor=#b85450;" parent="1" edge="1">
          <mxGeometry width="50" height="50" relative="1" as="geometry">
            <mxPoint x="80" y="200" as="sourcePoint" />
            <mxPoint x="280" y="200" as="targetPoint" />
          </mxGeometry>
        </mxCell>
        <mxCell id="J6RAPATOhl8KOnhEuI8E-3" value="" style="endArrow=none;html=1;rounded=0;strokeWidth=3;fillColor=#f8cecc;strokeColor=#b85450;" parent="1" edge="1">
          <mxGeometry width="50" height="50" relative="1" as="geometry">
            <mxPoint x="80" y="240" as="sourcePoint" />
            <mxPoint x="280" y="240" as="targetPoint" />
          </mxGeometry>
        </mxCell>
        <mxCell id="J6RAPATOhl8KOnhEuI8E-4" value="" style="endArrow=none;html=1;rounded=0;strokeWidth=3;fillColor=#f8cecc;strokeColor=#b85450;" parent="1" edge="1">
          <mxGeometry width="50" height="50" relative="1" as="geometry">
            <mxPoint x="80" y="280" as="sourcePoint" />
            <mxPoint x="280" y="280" as="targetPoint" />
          </mxGeometry>
        </mxCell>
        <mxCell id="J6RAPATOhl8KOnhEuI8E-5" value="" style="endArrow=none;html=1;rounded=0;strokeWidth=3;fillColor=#dae8fc;strokeColor=#6c8ebf;" parent="1" edge="1">
          <mxGeometry width="50" height="50" relative="1" as="geometry">
            <mxPoint x="80" y="180" as="sourcePoint" />
            <mxPoint x="280" y="180" as="targetPoint" />
          </mxGeometry>
        </mxCell>
        <mxCell id="J6RAPATOhl8KOnhEuI8E-6" value="" style="endArrow=none;html=1;rounded=0;strokeWidth=3;fillColor=#dae8fc;strokeColor=#6c8ebf;" parent="1" edge="1">
          <mxGeometry width="50" height="50" relative="1" as="geometry">
            <mxPoint x="80" y="220" as="sourcePoint" />
            <mxPoint x="280" y="220" as="targetPoint" />
          </mxGeometry>
        </mxCell>
        <mxCell id="J6RAPATOhl8KOnhEuI8E-7" value="" style="endArrow=none;html=1;rounded=0;strokeWidth=3;fillColor=#dae8fc;strokeColor=#6c8ebf;" parent="1" edge="1">
          <mxGeometry width="50" height="50" relative="1" as="geometry">
            <mxPoint x="80" y="260" as="sourcePoint" />
            <mxPoint x="280" y="260" as="targetPoint" />
          </mxGeometry>
        </mxCell>
        <mxCell id="J6RAPATOhl8KOnhEuI8E-8" value="" style="endArrow=none;html=1;rounded=0;strokeWidth=3;fillColor=#f8cecc;strokeColor=#b85450;" parent="1" edge="1">
          <mxGeometry width="50" height="50" relative="1" as="geometry">
            <mxPoint x="400" y="160" as="sourcePoint" />
            <mxPoint x="600" y="160" as="targetPoint" />
          </mxGeometry>
        </mxCell>
        <mxCell id="J6RAPATOhl8KOnhEuI8E-9" value="" style="endArrow=none;html=1;rounded=0;strokeWidth=3;fillColor=#f8cecc;strokeColor=#b85450;" parent="1" edge="1">
          <mxGeometry width="50" height="50" relative="1" as="geometry">
            <mxPoint x="400" y="200" as="sourcePoint" />
            <mxPoint x="600" y="200" as="targetPoint" />
          </mxGeometry>
        </mxCell>
        <mxCell id="J6RAPATOhl8KOnhEuI8E-10" value="" style="endArrow=none;html=1;rounded=0;strokeWidth=3;fillColor=#f8cecc;strokeColor=#b85450;" parent="1" edge="1">
          <mxGeometry width="50" height="50" relative="1" as="geometry">
            <mxPoint x="400" y="240" as="sourcePoint" />
            <mxPoint x="600" y="240" as="targetPoint" />
          </mxGeometry>
        </mxCell>
        <mxCell id="J6RAPATOhl8KOnhEuI8E-11" value="" style="endArrow=none;html=1;rounded=0;strokeWidth=3;fillColor=#f8cecc;strokeColor=#b85450;" parent="1" edge="1">
          <mxGeometry width="50" height="50" relative="1" as="geometry">
            <mxPoint x="400" y="280" as="sourcePoint" />
            <mxPoint x="600" y="280" as="targetPoint" />
          </mxGeometry>
        </mxCell>
        <mxCell id="J6RAPATOhl8KOnhEuI8E-12" value="" style="endArrow=none;html=1;rounded=0;strokeWidth=1;fillColor=#dae8fc;strokeColor=#9999FF;dashed=1;" parent="1" edge="1">
          <mxGeometry width="50" height="50" relative="1" as="geometry">
            <mxPoint x="400" y="180" as="sourcePoint" />
            <mxPoint x="600" y="180" as="targetPoint" />
          </mxGeometry>
        </mxCell>
        <mxCell id="J6RAPATOhl8KOnhEuI8E-15" value="" style="endArrow=none;html=1;rounded=0;strokeWidth=1;fillColor=#dae8fc;strokeColor=#9999FF;dashed=1;" parent="1" edge="1">
          <mxGeometry width="50" height="50" relative="1" as="geometry">
            <mxPoint x="400" y="220" as="sourcePoint" />
            <mxPoint x="600" y="220" as="targetPoint" />
          </mxGeometry>
        </mxCell>
        <mxCell id="J6RAPATOhl8KOnhEuI8E-16" value="" style="endArrow=none;html=1;rounded=0;strokeWidth=1;fillColor=#dae8fc;strokeColor=#9999FF;fontStyle=1;dashed=1;" parent="1" edge="1">
          <mxGeometry width="50" height="50" relative="1" as="geometry">
            <mxPoint x="400" y="260" as="sourcePoint" />
            <mxPoint x="600" y="260" as="targetPoint" />
          </mxGeometry>
        </mxCell>
        <mxCell id="J6RAPATOhl8KOnhEuI8E-18" value="" style="triangle;whiteSpace=wrap;html=1;rotation=-90;fillColor=#fa6800;strokeColor=#C73500;fontColor=#000000;" parent="1" vertex="1">
          <mxGeometry x="450" y="174" width="20" height="30" as="geometry" />
        </mxCell>
        <mxCell id="J6RAPATOhl8KOnhEuI8E-19" value="&lt;font style=&quot;font-size: 14px; color: rgb(0, 153, 0);&quot;&gt;$$k \space\text{bit}$$&lt;/font&gt;" style="text;html=1;align=center;verticalAlign=middle;whiteSpace=wrap;rounded=0;" parent="1" vertex="1">
          <mxGeometry x="120" y="130" width="140" height="30" as="geometry" />
        </mxCell>
        <mxCell id="J6RAPATOhl8KOnhEuI8E-20" value="&lt;font style=&quot;font-size: 14px; color: rgb(0, 153, 0);&quot;&gt;$$(k-1) \space\text{bit}$$&lt;/font&gt;" style="text;html=1;align=center;verticalAlign=middle;whiteSpace=wrap;rounded=0;" parent="1" vertex="1">
          <mxGeometry x="425" y="130" width="140" height="30" as="geometry" />
        </mxCell>
        <mxCell id="J6RAPATOhl8KOnhEuI8E-21" value="" style="endArrow=blockThin;html=1;rounded=0;endFill=1;fillColor=#e51400;strokeColor=#9933FF;strokeWidth=2;" parent="1" edge="1">
          <mxGeometry width="50" height="50" relative="1" as="geometry">
            <mxPoint x="300" y="220" as="sourcePoint" />
            <mxPoint x="370" y="220" as="targetPoint" />
          </mxGeometry>
        </mxCell>
        <mxCell id="J6RAPATOhl8KOnhEuI8E-22" value="&lt;font style=&quot;color: rgb(255, 0, 128);&quot;&gt;truncate 1bit&lt;/font&gt;" style="text;html=1;align=center;verticalAlign=middle;whiteSpace=wrap;rounded=0;" parent="1" vertex="1">
          <mxGeometry x="300" y="190" width="80" height="30" as="geometry" />
        </mxCell>
        <mxCell id="J6RAPATOhl8KOnhEuI8E-23" value="&lt;font style=&quot;font-size: 14px; color: rgb(255, 0, 0);&quot;&gt;$$v$$&lt;/font&gt;" style="text;html=1;align=center;verticalAlign=middle;whiteSpace=wrap;rounded=0;" parent="1" vertex="1">
          <mxGeometry x="356" y="179" width="80" height="30" as="geometry" />
        </mxCell>
        <mxCell id="J6RAPATOhl8KOnhEuI8E-24" value="&lt;font style=&quot;font-size: 14px; color: rgb(255, 0, 0);&quot;&gt;$$q$$&lt;/font&gt;" style="text;html=1;align=center;verticalAlign=middle;whiteSpace=wrap;rounded=0;" parent="1" vertex="1">
          <mxGeometry x="391" y="172" width="80" height="30" as="geometry" />
        </mxCell>
        <mxCell id="J6RAPATOhl8KOnhEuI8E-25" value="" style="shape=waypoint;sketch=0;fillStyle=solid;size=6;pointerEvents=1;points=[];fillColor=#00FF00;resizable=0;rotatable=0;perimeter=centerPerimeter;snapToPoint=1;fontColor=#ffffff;strokeColor=#00FF00;strokeWidth=2;" parent="1" vertex="1">
          <mxGeometry x="450" y="170" width="20" height="20" as="geometry" />
        </mxCell>
      </root>
    </mxGraphModel>
  </diagram>
</mxfile>
